name rise49.5252peak65.1548fall88.8305.mot
datacolumns 19
datarows 14
range 23.49323800000000 23.51490200000000
endheader
time	ground_force1_vx	ground_force1_vy	ground_force1_vz	ground_force1_px	ground_force1_py	ground_force1_pz	ground_force2_vx	ground_force2_vy	ground_force2_vz	ground_force2_px	ground_force2_py	ground_force2_pz	ground_torque1_x	ground_torque1_y	ground_torque1_z	ground_torque2_x	ground_torque2_y	ground_torque2_z	
23.49323800000000	-10.42824500000000	41.57048600000000	-8.24260900000000	0.38063400000000	0.00000000000000	0.11250600000000	-52.15976800000000	783.70825400000001	-57.66393700000000	0.19098200000000	0.00000000000000	-0.06594500000000	0.00000000000000	-5.48460500000000	0.00000000000000	0.00000000000000	-26.72171900000000	0.00000000000000	
23.49490200000000	-11.48349900000000	48.85175400000000	-9.25407400000000	0.38359600000000	0.00000000000000	0.11407800000000	-52.89244500000000	781.21413600000005	-57.32980200000000	0.18994000000000	0.00000000000000	-0.06586500000000	0.00000000000000	-6.21221000000000	0.00000000000000	0.00000000000000	-26.58328800000000	0.00000000000000	
23.49656900000000	-12.35404400000000	56.25891900000000	-10.16616000000000	0.38631300000000	0.00000000000000	0.11548500000000	-53.63178200000000	778.58681200000001	-56.97295900000000	0.18888400000000	0.00000000000000	-0.06578300000000	0.00000000000000	-6.88891100000000	0.00000000000000	0.00000000000000	-26.44001400000000	0.00000000000000	
23.49823600000000	-13.01157800000000	63.69950300000000	-10.95630300000000	0.38882900000000	0.00000000000000	0.11675400000000	-54.37682200000000	775.82397400000002	-56.59330100000000	0.18781500000000	0.00000000000000	-0.06570000000000	0.00000000000000	-7.49990900000000	0.00000000000000	0.00000000000000	-26.29186800000000	0.00000000000000	
23.49990400000000	-13.43900000000000	71.10283699999999	-11.60933400000000	0.39117800000000	0.00000000000000	0.11790800000000	-55.12652500000000	772.92331200000001	-56.19074600000000	0.18673300000000	0.00000000000000	-0.06561400000000	0.00000000000000	-8.03492800000000	0.00000000000000	0.00000000000000	-26.13881800000000	0.00000000000000	
23.50157200000000	-13.63028500000000	78.42235400000000	-12.11758200000000	0.39338700000000	0.00000000000000	0.11896200000000	-55.87976400000000	769.88251700000001	-55.76523600000000	0.18563800000000	0.00000000000000	-0.06552600000000	0.00000000000000	-8.48833800000000	0.00000000000000	0.00000000000000	-25.98082800000000	0.00000000000000	
23.50324200000000	-13.58947900000000	85.63552199999999	-12.48034900000000	0.39547800000000	0.00000000000000	0.11993100000000	-56.63532700000000	766.69928500000003	-55.31674400000000	0.18453100000000	0.00000000000000	-0.06543700000000	0.00000000000000	-8.85888600000000	0.00000000000000	0.00000000000000	-25.81786000000000	0.00000000000000	
23.50490500000000	-13.32904100000000	92.74179900000000	-12.70291200000000	0.39746900000000	0.00000000000000	0.12082600000000	-57.39192200000000	763.37132599999995	-54.84526800000000	0.18341300000000	0.00000000000000	-0.06534500000000	0.00000000000000	-9.14910500000000	0.00000000000000	0.00000000000000	-25.64987300000000	0.00000000000000	
23.50657700000000	-12.86778700000000	99.75913799999999	-12.79519900000000	0.39937400000000	0.00000000000000	0.12165600000000	-58.14818000000000	759.89636700000005	-54.35083900000000	0.18228500000000	0.00000000000000	-0.06525100000000	0.00000000000000	-9.36452400000000	0.00000000000000	0.00000000000000	-25.47682400000000	0.00000000000000	
23.50825200000000	-12.22866500000000	106.71956600000000	-12.77032100000000	0.40120500000000	0.00000000000000	0.12243000000000	-58.90265200000000	756.27215999999999	-53.83351800000000	0.18114700000000	0.00000000000000	-0.06515500000000	0.00000000000000	-9.51275800000000	0.00000000000000	0.00000000000000	-25.29866700000000	0.00000000000000	
23.50991100000000	-11.43658300000000	113.66438300000000	-12.64310600000000	0.40297200000000	0.00000000000000	0.12315300000000	-59.65381700000000	752.49648999999999	-53.29340100000000	0.18000000000000	0.00000000000000	-0.06505700000000	0.00000000000000	-9.60259300000000	0.00000000000000	0.00000000000000	-25.11535700000000	0.00000000000000	
23.51157000000000	-10.51645600000000	120.63942700000000	-12.42874100000000	0.40468200000000	0.00000000000000	0.12383100000000	-60.40008300000000	748.56717900000001	-52.73061800000000	0.17884600000000	0.00000000000000	-0.06495600000000	0.00000000000000	-9.64313000000000	0.00000000000000	0.00000000000000	-24.92684700000000	0.00000000000000	
23.51324300000000	-9.49158000000000	127.69077100000000	-12.14162400000000	0.40634400000000	0.00000000000000	0.12446900000000	-61.13979500000000	744.48209599999996	-52.14533600000000	0.17768400000000	0.00000000000000	-0.06485400000000	0.00000000000000	-9.64304500000000	0.00000000000000	0.00000000000000	-24.73309000000000	0.00000000000000	
23.51490200000000	-8.38242200000000	134.86111900000000	-11.79448100000000	0.40796100000000	0.00000000000000	0.12507100000000	-61.87123200000000	740.23916899999995	-51.53776000000000	0.17651700000000	0.00000000000000	-0.06474900000000	0.00000000000000	-9.61001600000000	0.00000000000000	0.00000000000000	-24.53404000000000	0.00000000000000	
